<svg width="50" height="50" viewBox="0 0 50 50" fill="none" xmlns="http://www.w3.org/2000/svg">
<g clip-path="url(#clip0_1_2)">
<path d="M25 50C38.8071 50 50 38.8071 50 25C50 11.1929 38.8071 0 25 0C11.1929 0 0 11.1929 0 25C0 38.8071 11.1929 50 25 50Z" fill="#F2F6FF"/>
<path d="M34 28H16C15.4477 28 15 28.4477 15 29C15 29.5523 15.4477 30 16 30H34C34.5523 30 35 29.5523 35 29C35 28.4477 34.5523 28 34 28Z" fill="#234CAD"/>
<path d="M34 20H16C15.4477 20 15 20.4477 15 21C15 21.5523 15.4477 22 16 22H34C34.5523 22 35 21.5523 35 21C35 20.4477 34.5523 20 34 20Z" fill="#234CAD"/>
</g>
<defs>
<clipPath id="clip0_1_2">
<rect width="50" height="50" fill="white"/>
</clipPath>
</defs>
</svg>
